<?xml version="1.0" standalone="no"?>
<!DOCTYPE svg PUBLIC "-//W3C//DTD SVG 20010904//EN"
 "http://www.w3.org/TR/2001/REC-SVG-20010904/DTD/svg10.dtd">
<svg version="1.0" xmlns="http://www.w3.org/2000/svg"
 width="96.000000pt" height="96.000000pt" viewBox="0 0 96.000000 96.000000"
 preserveAspectRatio="xMidYMid meet">
<metadata>
Created by potrace 1.14, written by Peter Selinger 2001-2017
</metadata>
<g transform="translate(0.000000,96.000000) scale(0.100000,-0.100000)"
fill="#000000" stroke="none">
<path d="M310 788 c-7 -29 -23 -89 -35 -133 -63 -222 -138 -515 -133 -520 2
-3 18 -7 34 -11 l29 -5 31 118 c18 65 60 223 94 351 34 128 61 235 59 236 -2
2 -18 7 -35 10 -31 7 -32 7 -44 -46z"/>
<path d="M718 723 c-40 -87 -242 -503 -264 -545 -14 -26 -13 -28 17 -43 17 -9
32 -15 33 -13 13 15 200 399 283 577 18 41 30 78 26 82 -4 4 -19 10 -33 14
-23 5 -28 0 -62 -72z"/>
</g>
</svg>
